<?xml version="1.0" encoding="UTF-8"?>
<svg xmlns="http://www.w3.org/2000/svg" xmlns:xlink="http://www.w3.org/1999/xlink" width="200pt" height="120pt" viewBox="0 0 200 120" version="1.1">
<g id="surface1">
<rect x="0" y="0" width="200" height="120" style="fill:rgb(69.803922%,13.333333%,20.392157%);fill-opacity:1;stroke:none;"/>
<path style="fill-rule:nonzero;fill:rgb(0%,0%,0%);fill-opacity:1;stroke-width:300;stroke-linecap:butt;stroke-linejoin:miter;stroke:rgb(100%,100%,100%);stroke-opacity:1;stroke-miterlimit:4;" d="M 0 450.048828 L 7410 450.048828 M 7410 1050.029297 L 0 1050.029297 M 0 1650.009766 L 7410 1650.009766 M 7410 2249.990234 L 0 2249.990234 M 0 2849.970703 L 7410 2849.970703 M 7410 3449.951172 L 0 3449.951172 " transform="matrix(0.0269906,0,0,0.0307692,0,0)"/>
<path style=" stroke:none;fill-rule:nonzero;fill:rgb(23.529412%,23.137255%,43.137255%);fill-opacity:1;" d="M 0 0 L 80 0 L 80 64.617188 L 0 64.617188 Z M 0 0 "/>
<path style=" stroke:none;fill-rule:nonzero;fill:rgb(100%,100%,100%);fill-opacity:1;" d="M 6.667969 2.769531 L 8.570312 9.449219 L 3.585938 5.320312 L 9.746094 5.320312 L 4.761719 9.449219 Z M 6.667969 2.769531 "/>
<path style=" stroke:none;fill-rule:nonzero;fill:rgb(100%,100%,100%);fill-opacity:1;" d="M 6.667969 15.691406 L 8.570312 22.371094 L 3.585938 18.242188 L 9.746094 18.242188 L 4.761719 22.371094 Z M 6.667969 15.691406 "/>
<path style=" stroke:none;fill-rule:nonzero;fill:rgb(100%,100%,100%);fill-opacity:1;" d="M 6.667969 28.617188 L 8.570312 35.292969 L 3.585938 31.167969 L 9.746094 31.167969 L 4.761719 35.292969 Z M 6.667969 28.617188 "/>
<path style=" stroke:none;fill-rule:nonzero;fill:rgb(100%,100%,100%);fill-opacity:1;" d="M 6.667969 41.539062 L 8.570312 48.21875 L 3.585938 44.089844 L 9.746094 44.089844 L 4.761719 48.21875 Z M 6.667969 41.539062 "/>
<path style=" stroke:none;fill-rule:nonzero;fill:rgb(100%,100%,100%);fill-opacity:1;" d="M 6.667969 54.460938 L 8.570312 61.140625 L 3.585938 57.011719 L 9.746094 57.011719 L 4.761719 61.140625 Z M 6.667969 54.460938 "/>
<path style=" stroke:none;fill-rule:nonzero;fill:rgb(100%,100%,100%);fill-opacity:1;" d="M 13.332031 9.230469 L 15.238281 15.910156 L 10.253906 11.78125 L 16.414062 11.78125 L 11.429688 15.910156 Z M 13.332031 9.230469 "/>
<path style=" stroke:none;fill-rule:nonzero;fill:rgb(100%,100%,100%);fill-opacity:1;" d="M 13.332031 22.152344 L 15.238281 28.832031 L 10.253906 24.707031 L 16.414062 24.707031 L 11.429688 28.832031 Z M 13.332031 22.152344 "/>
<path style=" stroke:none;fill-rule:nonzero;fill:rgb(100%,100%,100%);fill-opacity:1;" d="M 13.332031 35.078125 L 15.238281 41.757812 L 10.253906 37.628906 L 16.414062 37.628906 L 11.429688 41.757812 Z M 13.332031 35.078125 "/>
<path style=" stroke:none;fill-rule:nonzero;fill:rgb(100%,100%,100%);fill-opacity:1;" d="M 13.332031 48 L 15.238281 54.679688 L 10.253906 50.550781 L 16.414062 50.550781 L 11.429688 54.679688 Z M 13.332031 48 "/>
<path style=" stroke:none;fill-rule:nonzero;fill:rgb(100%,100%,100%);fill-opacity:1;" d="M 20 2.769531 L 21.902344 9.449219 L 16.917969 5.320312 L 23.082031 5.320312 L 18.097656 9.449219 Z M 20 2.769531 "/>
<path style=" stroke:none;fill-rule:nonzero;fill:rgb(100%,100%,100%);fill-opacity:1;" d="M 20 15.691406 L 21.902344 22.371094 L 16.917969 18.242188 L 23.082031 18.242188 L 18.097656 22.371094 Z M 20 15.691406 "/>
<path style=" stroke:none;fill-rule:nonzero;fill:rgb(100%,100%,100%);fill-opacity:1;" d="M 20 28.617188 L 21.902344 35.292969 L 16.917969 31.167969 L 23.082031 31.167969 L 18.097656 35.292969 Z M 20 28.617188 "/>
<path style=" stroke:none;fill-rule:nonzero;fill:rgb(100%,100%,100%);fill-opacity:1;" d="M 20 41.539062 L 21.902344 48.21875 L 16.917969 44.089844 L 23.082031 44.089844 L 18.097656 48.21875 Z M 20 41.539062 "/>
<path style=" stroke:none;fill-rule:nonzero;fill:rgb(100%,100%,100%);fill-opacity:1;" d="M 20 54.460938 L 21.902344 61.140625 L 16.917969 57.011719 L 23.082031 57.011719 L 18.097656 61.140625 Z M 20 54.460938 "/>
<path style=" stroke:none;fill-rule:nonzero;fill:rgb(100%,100%,100%);fill-opacity:1;" d="M 26.667969 9.230469 L 28.570312 15.910156 L 23.585938 11.78125 L 29.746094 11.78125 L 24.761719 15.910156 Z M 26.667969 9.230469 "/>
<path style=" stroke:none;fill-rule:nonzero;fill:rgb(100%,100%,100%);fill-opacity:1;" d="M 26.667969 22.152344 L 28.570312 28.832031 L 23.585938 24.707031 L 29.746094 24.707031 L 24.761719 28.832031 Z M 26.667969 22.152344 "/>
<path style=" stroke:none;fill-rule:nonzero;fill:rgb(100%,100%,100%);fill-opacity:1;" d="M 26.667969 35.078125 L 28.570312 41.757812 L 23.585938 37.628906 L 29.746094 37.628906 L 24.761719 41.757812 Z M 26.667969 35.078125 "/>
<path style=" stroke:none;fill-rule:nonzero;fill:rgb(100%,100%,100%);fill-opacity:1;" d="M 26.667969 48 L 28.570312 54.679688 L 23.585938 50.550781 L 29.746094 50.550781 L 24.761719 54.679688 Z M 26.667969 48 "/>
<path style=" stroke:none;fill-rule:nonzero;fill:rgb(100%,100%,100%);fill-opacity:1;" d="M 33.332031 2.769531 L 35.238281 9.449219 L 30.253906 5.320312 L 36.414062 5.320312 L 31.429688 9.449219 Z M 33.332031 2.769531 "/>
<path style=" stroke:none;fill-rule:nonzero;fill:rgb(100%,100%,100%);fill-opacity:1;" d="M 33.332031 15.691406 L 35.238281 22.371094 L 30.253906 18.242188 L 36.414062 18.242188 L 31.429688 22.371094 Z M 33.332031 15.691406 "/>
<path style=" stroke:none;fill-rule:nonzero;fill:rgb(100%,100%,100%);fill-opacity:1;" d="M 33.332031 28.617188 L 35.238281 35.292969 L 30.253906 31.167969 L 36.414062 31.167969 L 31.429688 35.292969 Z M 33.332031 28.617188 "/>
<path style=" stroke:none;fill-rule:nonzero;fill:rgb(100%,100%,100%);fill-opacity:1;" d="M 33.332031 41.539062 L 35.238281 48.21875 L 30.253906 44.089844 L 36.414062 44.089844 L 31.429688 48.21875 Z M 33.332031 41.539062 "/>
<path style=" stroke:none;fill-rule:nonzero;fill:rgb(100%,100%,100%);fill-opacity:1;" d="M 33.332031 54.460938 L 35.238281 61.140625 L 30.253906 57.011719 L 36.414062 57.011719 L 31.429688 61.140625 Z M 33.332031 54.460938 "/>
<path style=" stroke:none;fill-rule:nonzero;fill:rgb(100%,100%,100%);fill-opacity:1;" d="M 40 9.230469 L 41.902344 15.910156 L 36.917969 11.78125 L 43.082031 11.78125 L 38.097656 15.910156 Z M 40 9.230469 "/>
<path style=" stroke:none;fill-rule:nonzero;fill:rgb(100%,100%,100%);fill-opacity:1;" d="M 40 22.152344 L 41.902344 28.832031 L 36.917969 24.707031 L 43.082031 24.707031 L 38.097656 28.832031 Z M 40 22.152344 "/>
<path style=" stroke:none;fill-rule:nonzero;fill:rgb(100%,100%,100%);fill-opacity:1;" d="M 40 35.078125 L 41.902344 41.757812 L 36.917969 37.628906 L 43.082031 37.628906 L 38.097656 41.757812 Z M 40 35.078125 "/>
<path style=" stroke:none;fill-rule:nonzero;fill:rgb(100%,100%,100%);fill-opacity:1;" d="M 40 48 L 41.902344 54.679688 L 36.917969 50.550781 L 43.082031 50.550781 L 38.097656 54.679688 Z M 40 48 "/>
<path style=" stroke:none;fill-rule:nonzero;fill:rgb(100%,100%,100%);fill-opacity:1;" d="M 46.667969 2.769531 L 48.570312 9.449219 L 43.585938 5.320312 L 49.746094 5.320312 L 44.761719 9.449219 Z M 46.667969 2.769531 "/>
<path style=" stroke:none;fill-rule:nonzero;fill:rgb(100%,100%,100%);fill-opacity:1;" d="M 46.667969 15.691406 L 48.570312 22.371094 L 43.585938 18.242188 L 49.746094 18.242188 L 44.761719 22.371094 Z M 46.667969 15.691406 "/>
<path style=" stroke:none;fill-rule:nonzero;fill:rgb(100%,100%,100%);fill-opacity:1;" d="M 46.667969 28.617188 L 48.570312 35.292969 L 43.585938 31.167969 L 49.746094 31.167969 L 44.761719 35.292969 Z M 46.667969 28.617188 "/>
<path style=" stroke:none;fill-rule:nonzero;fill:rgb(100%,100%,100%);fill-opacity:1;" d="M 46.667969 41.539062 L 48.570312 48.21875 L 43.585938 44.089844 L 49.746094 44.089844 L 44.761719 48.21875 Z M 46.667969 41.539062 "/>
<path style=" stroke:none;fill-rule:nonzero;fill:rgb(100%,100%,100%);fill-opacity:1;" d="M 46.667969 54.460938 L 48.570312 61.140625 L 43.585938 57.011719 L 49.746094 57.011719 L 44.761719 61.140625 Z M 46.667969 54.460938 "/>
<path style=" stroke:none;fill-rule:nonzero;fill:rgb(100%,100%,100%);fill-opacity:1;" d="M 53.332031 9.230469 L 55.238281 15.910156 L 50.253906 11.78125 L 56.414062 11.78125 L 51.429688 15.910156 Z M 53.332031 9.230469 "/>
<path style=" stroke:none;fill-rule:nonzero;fill:rgb(100%,100%,100%);fill-opacity:1;" d="M 53.332031 22.152344 L 55.238281 28.832031 L 50.253906 24.707031 L 56.414062 24.707031 L 51.429688 28.832031 Z M 53.332031 22.152344 "/>
<path style=" stroke:none;fill-rule:nonzero;fill:rgb(100%,100%,100%);fill-opacity:1;" d="M 53.332031 35.078125 L 55.238281 41.757812 L 50.253906 37.628906 L 56.414062 37.628906 L 51.429688 41.757812 Z M 53.332031 35.078125 "/>
<path style=" stroke:none;fill-rule:nonzero;fill:rgb(100%,100%,100%);fill-opacity:1;" d="M 53.332031 48 L 55.238281 54.679688 L 50.253906 50.550781 L 56.414062 50.550781 L 51.429688 54.679688 Z M 53.332031 48 "/>
<path style=" stroke:none;fill-rule:nonzero;fill:rgb(100%,100%,100%);fill-opacity:1;" d="M 60 2.769531 L 61.902344 9.449219 L 56.917969 5.320312 L 63.082031 5.320312 L 58.097656 9.449219 Z M 60 2.769531 "/>
<path style=" stroke:none;fill-rule:nonzero;fill:rgb(100%,100%,100%);fill-opacity:1;" d="M 60 15.691406 L 61.902344 22.371094 L 56.917969 18.242188 L 63.082031 18.242188 L 58.097656 22.371094 Z M 60 15.691406 "/>
<path style=" stroke:none;fill-rule:nonzero;fill:rgb(100%,100%,100%);fill-opacity:1;" d="M 60 28.617188 L 61.902344 35.292969 L 56.917969 31.167969 L 63.082031 31.167969 L 58.097656 35.292969 Z M 60 28.617188 "/>
<path style=" stroke:none;fill-rule:nonzero;fill:rgb(100%,100%,100%);fill-opacity:1;" d="M 60 41.539062 L 61.902344 48.21875 L 56.917969 44.089844 L 63.082031 44.089844 L 58.097656 48.21875 Z M 60 41.539062 "/>
<path style=" stroke:none;fill-rule:nonzero;fill:rgb(100%,100%,100%);fill-opacity:1;" d="M 60 54.460938 L 61.902344 61.140625 L 56.917969 57.011719 L 63.082031 57.011719 L 58.097656 61.140625 Z M 60 54.460938 "/>
<path style=" stroke:none;fill-rule:nonzero;fill:rgb(100%,100%,100%);fill-opacity:1;" d="M 66.667969 9.230469 L 68.570312 15.910156 L 63.585938 11.78125 L 69.746094 11.78125 L 64.761719 15.910156 Z M 66.667969 9.230469 "/>
<path style=" stroke:none;fill-rule:nonzero;fill:rgb(100%,100%,100%);fill-opacity:1;" d="M 66.667969 22.152344 L 68.570312 28.832031 L 63.585938 24.707031 L 69.746094 24.707031 L 64.761719 28.832031 Z M 66.667969 22.152344 "/>
<path style=" stroke:none;fill-rule:nonzero;fill:rgb(100%,100%,100%);fill-opacity:1;" d="M 66.667969 35.078125 L 68.570312 41.757812 L 63.585938 37.628906 L 69.746094 37.628906 L 64.761719 41.757812 Z M 66.667969 35.078125 "/>
<path style=" stroke:none;fill-rule:nonzero;fill:rgb(100%,100%,100%);fill-opacity:1;" d="M 66.667969 48 L 68.570312 54.679688 L 63.585938 50.550781 L 69.746094 50.550781 L 64.761719 54.679688 Z M 66.667969 48 "/>
<path style=" stroke:none;fill-rule:nonzero;fill:rgb(100%,100%,100%);fill-opacity:1;" d="M 73.332031 2.769531 L 75.238281 9.449219 L 70.253906 5.320312 L 76.414062 5.320312 L 71.429688 9.449219 Z M 73.332031 2.769531 "/>
<path style=" stroke:none;fill-rule:nonzero;fill:rgb(100%,100%,100%);fill-opacity:1;" d="M 73.332031 15.691406 L 75.238281 22.371094 L 70.253906 18.242188 L 76.414062 18.242188 L 71.429688 22.371094 Z M 73.332031 15.691406 "/>
<path style=" stroke:none;fill-rule:nonzero;fill:rgb(100%,100%,100%);fill-opacity:1;" d="M 73.332031 28.617188 L 75.238281 35.292969 L 70.253906 31.167969 L 76.414062 31.167969 L 71.429688 35.292969 Z M 73.332031 28.617188 "/>
<path style=" stroke:none;fill-rule:nonzero;fill:rgb(100%,100%,100%);fill-opacity:1;" d="M 73.332031 41.539062 L 75.238281 48.21875 L 70.253906 44.089844 L 76.414062 44.089844 L 71.429688 48.21875 Z M 73.332031 41.539062 "/>
<path style=" stroke:none;fill-rule:nonzero;fill:rgb(100%,100%,100%);fill-opacity:1;" d="M 73.332031 54.460938 L 75.238281 61.140625 L 70.253906 57.011719 L 76.414062 57.011719 L 71.429688 61.140625 Z M 73.332031 54.460938 "/>
</g>
</svg>
